# xmcd CD database file
#
# Track frame offsets:
#	150
#	11760
#	24225
#	36635
#	46717
#	56605
#	67895
#	79522
#	89925
#	101162
#	113597
#	126192
#	137712
#	149897
#	162347
#	174607
#	187702
#	198390
#	215132
#	229635
#
# Disc length: 3243 seconds
#
# Revision: 5
# Processed by: cddbd v1.5.2PL0 Copyright (c) Steve Scherf et al.
# Submitted via: CDex 1.70beta2
#
DISCID=1f0ca914
DTITLE=John Lee Hooker - The Very Best Of
DYEAR=1993
DGENRE=Blues
TTITLE0=Boom Boom
TTITLE1=Trouble Blues
TTITLE2=Whiskey And Women
TTITLE3=Dimples
TTITLE4=I Wanna Walk
TTITLE5=Let's Make It
TTITLE6=Boggie Chillon
TTITLE7=Big Legs Tight Skirts
TTITLE8=Good Rockin' Mama
TTITLE9=Crawling Kingsnake
TTITLE10=Mambo Chillon
TTITLE11=Wheel and Deal
TTITLE12=Everybody Rockin'
TTITLE13=Crawling Black Spider
TTITLE14=You Can Lead Me Baby
TTITLE15=Unfriendly Woman
TTITLE16=Little Fine Woman
TTITLE17=Mama You Got A Doughter
TTITLE18=I'm So Worried Baby
TTITLE19=Time Is Marchin'
EXTD=YEAR: 1993
EXTT0=
EXTT1=
EXTT2=
EXTT3=
EXTT4=
EXTT5=
EXTT6=
EXTT7=
EXTT8=
EXTT9=
EXTT10=
EXTT11=
EXTT12=
EXTT13=
EXTT14=
EXTT15=
EXTT16=
EXTT17=
EXTT18=
EXTT19=
PLAYORDER=
